<svg xmlns="http://www.w3.org/2000/svg" version="1.1" xmlns:xlink="http://www.w3.org/1999/xlink" xmlns:svgjs="http://svgjs.dev/svgjs" width="1920" height="1080" preserveAspectRatio="none" viewBox="0 0 1920 1080"><g mask="url(&quot;#SvgjsMask1052&quot;)" fill="none"><rect width="1920" height="1080" x="0" y="0" fill="rgba(242, 242, 242, 1)"></rect><path d="M987.8196887392978 412.44975661778636L845.8539786948913 371.74174432658 855.774815280285 605.044315538793z" fill="rgba(103, 100, 100, 0.5)" class="triangle-float1"></path><path d="M68.93433850718962 1024.5497877301918L166.1375496529013 890.7610452974922-64.85440392551003 927.3465765844802z" fill="rgba(103, 100, 100, 0.5)" class="triangle-float3"></path><path d="M234.12501392742604 503.32227166927413L76.11775151097106 350.73643201570803-76.4680881425951 508.743694432163 81.53917427385991 661.3295340857292z" fill="rgba(103, 100, 100, 0.5)" class="triangle-float2"></path><path d="M1534.775,1012.844C1582.846,1009.599,1608.94,961.685,1631.984,919.373C1653.617,879.652,1674.194,834.914,1653.619,794.634C1631.56,751.449,1583.25,727.76,1534.775,729.063C1488.402,730.309,1450.348,760.946,1426.502,800.738C1401.838,841.895,1390.009,891.5,1411.824,934.235C1435.528,980.672,1482.756,1016.356,1534.775,1012.844" fill="rgba(103, 100, 100, 0.5)" class="triangle-float1"></path><path d="M1232.6394742759053 328.7948354435366L1414.896815056903 531.2121190344017 1617.314098647768 348.954778253404 1435.0567578667703 146.5374946625389z" fill="rgba(103, 100, 100, 0.5)" class="triangle-float2"></path><path d="M1718.444,912.542C1764.126,911.363,1808.257,891.918,1831.387,852.507C1854.789,812.634,1850.693,764.263,1829.623,723.11C1806.21,677.381,1769.812,632.675,1718.444,631.914C1666.176,631.14,1626.419,673.826,1601.409,719.729C1577.644,763.347,1569.154,816.149,1594.928,858.611C1619.913,899.773,1670.309,913.785,1718.444,912.542" fill="rgba(103, 100, 100, 0.5)" class="triangle-float3"></path></g><defs><mask id="SvgjsMask1052"><rect width="1920" height="1080" fill="#ffffff"></rect></mask></defs></svg>