<svg xmlns="http://www.w3.org/2000/svg" version="1.1" xmlns:xlink="http://www.w3.org/1999/xlink" xmlns:svgjs="http://svgjs.dev/svgjs" width="1920" height="1080" preserveAspectRatio="none" viewBox="0 0 1920 1080"><g mask="url(&quot;#SvgjsMask1122&quot;)" fill="none"><rect width="1920" height="1080" x="0" y="0" fill="rgba(103, 100, 100, 1)"></rect><path d="M218.226,909.079C284.523,906.234,334.024,855.049,366.461,797.16C398.016,740.845,414.995,672.502,381.816,617.128C349.329,562.91,281.4,551.77,218.226,549.767C149.984,547.604,73.188,549.138,35.626,606.153C-4.671,667.319,8.375,748.17,46.189,810.902C82.722,871.51,147.524,912.113,218.226,909.079" fill="rgba(242, 242, 242, 0.3137254901960784)" class="triangle-float3"></path><path d="M150.6932899681351 543.6075423314865L-60.43247784525087 599.962922913789 72.26040308653097 737.3704235428518z" fill="rgba(242, 242, 242, 0.3137254901960784)" class="triangle-float1"></path><path d="M758.6452550189543 339.92463287747967L755.6199057791712 513.246774744305 928.9420476459964 516.272123984088 931.9673968857796 342.94998211726283z" fill="rgba(242, 242, 242, 0.3137254901960784)" class="triangle-float2"></path><path d="M1443.264,1072.78C1549.485,1075.157,1623.21,977.732,1672.914,883.827C1718.797,797.142,1732.607,697.264,1688.358,609.734C1639.326,512.742,1551.795,435.247,1443.264,429.545C1325.155,423.34,1200.125,474.704,1149.1,581.403C1102.288,679.292,1175.016,780.836,1230.75,873.934C1284.157,963.147,1339.313,1070.454,1443.264,1072.78" fill="rgba(242, 242, 242, 0.3137254901960784)" class="triangle-float3"></path><path d="M1246.3818557749685 849.6364851468154L1090.615538550137 704.104260247137 1045.5341617411132 884.9157868103151z" fill="rgba(242, 242, 242, 0.3137254901960784)" class="triangle-float2"></path><path d="M1596.129,942.736C1623.266,942.73,1640.97,917.616,1654.439,894.058C1667.773,870.736,1678.037,844.035,1666.405,819.819C1653.314,792.564,1626.347,771.61,1596.129,772.66C1567.208,773.665,1546.366,798.343,1533.831,824.425C1523.034,846.891,1526.162,872.028,1537.775,894.083C1550.421,918.1,1568.986,942.742,1596.129,942.736" fill="rgba(242, 242, 242, 0.3137254901960784)" class="triangle-float3"></path></g><defs><mask id="SvgjsMask1122"><rect width="1920" height="1080" fill="#ffffff"></rect></mask><style>
                @keyframes float1 {
                    0%{transform: translate(0, 0)}
                    50%{transform: translate(-10px, 0)}
                    100%{transform: translate(0, 0)}
                }

                .triangle-float1 {
                    animation: float1 5s infinite;
                }

                @keyframes float2 {
                    0%{transform: translate(0, 0)}
                    50%{transform: translate(-5px, -5px)}
                    100%{transform: translate(0, 0)}
                }

                .triangle-float2 {
                    animation: float2 4s infinite;
                }

                @keyframes float3 {
                    0%{transform: translate(0, 0)}
                    50%{transform: translate(0, -10px)}
                    100%{transform: translate(0, 0)}
                }

                .triangle-float3 {
                    animation: float3 6s infinite;
                }
            </style></defs></svg>