<svg xmlns="http://www.w3.org/2000/svg" version="1.1" xmlns:xlink="http://www.w3.org/1999/xlink" xmlns:svgjs="http://svgjs.dev/svgjs" width="1920" height="1080" preserveAspectRatio="none" viewBox="0 0 1920 1080"><g mask="url(&quot;#SvgjsMask1060&quot;)" fill="none"><rect width="1920" height="1080" x="0" y="0" fill="rgba(242, 242, 242, 1)"></rect><path d="M1782.688,1218.115C1880.705,1214.886,1954.254,1140.998,2004.98,1057.066C2058.053,969.251,2097.208,865.405,2051.324,773.629C2001.273,673.517,1894.519,607.838,1782.688,612.437C1677.214,616.775,1600.048,701.429,1549.779,794.255C1502.344,881.848,1485.524,985.298,1533.495,1072.598C1583.144,1162.952,1679.648,1221.509,1782.688,1218.115" fill="rgba(103, 100, 100, 0.5)" class="triangle-float3"></path><path d="M1121.7922252514222 283.81848521971085L876.9704930296468 292.1342513468704 987.2587478058716 475.6847309151877z" fill="rgba(103, 100, 100, 0.5)" class="triangle-float2"></path><path d="M386.017,1422.406C482.802,1427.565,586.209,1411.237,641.724,1331.789C705.085,1241.113,724.087,1116.607,665.076,1023.042C608.789,933.796,491.511,924.371,386.017,926.351C285.117,928.244,173.731,945.075,124.526,1033.185C76.1,1119.9,118.15,1224.39,173.537,1306.832C221.728,1378.562,299.725,1417.806,386.017,1422.406" fill="rgba(103, 100, 100, 0.5)" class="triangle-float2"></path><path d="M1911.847,877.289C1966.126,877.287,2011.183,842.196,2040.54,796.541C2073.103,745.901,2098.94,683.711,2070.413,630.692C2040.839,575.728,1974.262,557.163,1911.847,557.36C1849.839,557.556,1784.389,577.083,1755.006,631.688C1726.693,684.305,1750.98,746.191,1783.139,796.55C1812.354,842.299,1857.565,877.291,1911.847,877.289" fill="rgba(103, 100, 100, 0.5)" class="triangle-float2"></path><path d="M115.25481271840714 647.728715292962L319.509600565557 714.0951189143746 181.62121633981974 443.47392744581214z" fill="rgba(103, 100, 100, 0.5)" class="triangle-float3"></path><path d="M1388.552,1175.186C1485.744,1174.466,1595.162,1166.472,1644.388,1082.665C1694.013,998.177,1651.092,896.522,1602.058,811.689C1553.08,726.953,1486.379,643.011,1388.552,640.044C1286.787,636.958,1202.974,710.255,1151.373,798.022C1098.936,887.21,1070.987,998.922,1126.063,1086.505C1178.757,1170.299,1289.57,1175.919,1388.552,1175.186" fill="rgba(103, 100, 100, 0.5)" class="triangle-float2"></path></g><defs><mask id="SvgjsMask1060"><rect width="1920" height="1080" fill="#ffffff"></rect></mask><style>
                @keyframes float1 {
                    0%{transform: translate(0, 0)}
                    50%{transform: translate(-10px, 0)}
                    100%{transform: translate(0, 0)}
                }

                .triangle-float1 {
                    animation: float1 5s infinite;
                }

                @keyframes float2 {
                    0%{transform: translate(0, 0)}
                    50%{transform: translate(-5px, -5px)}
                    100%{transform: translate(0, 0)}
                }

                .triangle-float2 {
                    animation: float2 4s infinite;
                }

                @keyframes float3 {
                    0%{transform: translate(0, 0)}
                    50%{transform: translate(0, -10px)}
                    100%{transform: translate(0, 0)}
                }

                .triangle-float3 {
                    animation: float3 6s infinite;
                }
            </style></defs></svg>