<svg xmlns="http://www.w3.org/2000/svg" version="1.1" xmlns:xlink="http://www.w3.org/1999/xlink" xmlns:svgjs="http://svgjs.dev/svgjs" width="1920" height="1080" preserveAspectRatio="none" viewBox="0 0 1920 1080"><g mask="url(&quot;#SvgjsMask1056&quot;)" fill="none"><rect width="1920" height="1080" x="0" y="0" fill="rgba(242, 242, 242, 1)"></rect><path d="M1660.8368739199022 488.14321508324286L2000.3104186428627 542.2422340018966 1897.5341075096337 259.86663990850764z" fill="rgba(103, 100, 100, 0.5)" class="triangle-float2"></path><path d="M910.356,1186.466C972.862,1185.331,1025.359,1146.154,1058.298,1093.019C1093.453,1036.309,1113.735,967.149,1083.04,907.905C1050.208,844.536,981.683,805.017,910.356,807.474C842.657,809.806,789.362,859.56,757.118,919.133C726.595,975.527,720.913,1042.935,752.802,1098.568C784.856,1154.489,845.911,1187.637,910.356,1186.466" fill="rgba(103, 100, 100, 0.5)" class="triangle-float2"></path><path d="M700.8711760837176 1138.1102302994702L735.5340669697825 858.0107321542059 506.7803930109209 950.4332156897308z" fill="rgba(103, 100, 100, 0.5)" class="triangle-float3"></path><path d="M1464.8537069887295 421.12514111280336L1381.0673481644349 177.7918864144375 1137.734093466069 261.5782452387321 1221.5204522903637 504.911499937098z" fill="rgba(103, 100, 100, 0.5)" class="triangle-float3"></path><path d="M888.059,1239.264C954.187,1240.926,1022.423,1222.448,1058.543,1167.031C1097.862,1106.706,1101.741,1028.376,1066.409,965.632C1030.449,901.773,961.219,859.941,888.059,864.278C820.776,868.267,774.515,925.269,742.927,984.81C713.732,1039.84,700.933,1104.708,731.797,1158.82C762.906,1213.363,825.288,1237.687,888.059,1239.264" fill="rgba(103, 100, 100, 0.5)" class="triangle-float2"></path><path d="M1056.411,191.512C1095.27,193.418,1131.543,170.3,1150.189,136.153C1168.126,103.304,1162.151,64.176,1143.736,31.593C1124.974,-1.604,1094.537,-30.47,1056.411,-29.78C1019.153,-29.106,991.119,1.357,974.392,34.656C959.467,64.367,961.911,98.21,977.318,127.674C994.144,159.853,1020.142,189.733,1056.411,191.512" fill="rgba(103, 100, 100, 0.5)" class="triangle-float1"></path></g><defs><mask id="SvgjsMask1056"><rect width="1920" height="1080" fill="#ffffff"></rect></mask><style>
                @keyframes float1 {
                    0%{transform: translate(0, 0)}
                    50%{transform: translate(-10px, 0)}
                    100%{transform: translate(0, 0)}
                }

                .triangle-float1 {
                    animation: float1 5s infinite;
                }

                @keyframes float2 {
                    0%{transform: translate(0, 0)}
                    50%{transform: translate(-5px, -5px)}
                    100%{transform: translate(0, 0)}
                }

                .triangle-float2 {
                    animation: float2 4s infinite;
                }

                @keyframes float3 {
                    0%{transform: translate(0, 0)}
                    50%{transform: translate(0, -10px)}
                    100%{transform: translate(0, 0)}
                }

                .triangle-float3 {
                    animation: float3 6s infinite;
                }
            </style></defs></svg>