<svg xmlns="http://www.w3.org/2000/svg" version="1.1" xmlns:xlink="http://www.w3.org/1999/xlink" xmlns:svgjs="http://svgjs.dev/svgjs" width="1920" height="1080" preserveAspectRatio="none" viewBox="0 0 1920 1080"><g mask="url(&quot;#SvgjsMask1076&quot;)" fill="none"><rect width="1920" height="1080" x="0" y="0" fill="rgba(103, 100, 100, 1)"></rect><path d="M151.8557788822317 245.34955931558216L-107.86224291082092 345.0459671324794-8.165835093923647 604.7639889255321 251.55218669912898 505.0675811086348z" fill="rgba(242, 242, 242, 0.3137254901960784)" class="triangle-float1"></path><path d="M1610.387,984.141C1712.735,989.234,1815.48,940.443,1864.023,850.195C1910.556,763.685,1881.931,660.3,1829.132,577.466C1780.734,501.536,1700.43,452.148,1610.387,452.278C1520.57,452.408,1437.185,500.05,1392.736,578.097C1348.731,655.366,1354.996,748.582,1397.006,826.954C1441.739,910.406,1515.819,979.435,1610.387,984.141" fill="rgba(242, 242, 242, 0.3137254901960784)" class="triangle-float2"></path><path d="M1350.677,1116.927C1427.689,1112.413,1496.994,1075.357,1538.436,1010.29C1583.585,939.403,1603.716,852.566,1567.293,776.824C1525.873,690.691,1446.247,618.822,1350.677,619.841C1256.382,620.846,1187.663,698.899,1141.917,781.36C1097.838,860.817,1072.485,957.637,1120.483,1034.79C1166.608,1108.932,1263.508,1122.037,1350.677,1116.927" fill="rgba(242, 242, 242, 0.3137254901960784)" class="triangle-float3"></path><path d="M1356.4615136107195 1008.9662939968435L1209.376772389103 798.9075139990123 1146.4027336128884 1156.0510352184601z" fill="rgba(242, 242, 242, 0.3137254901960784)" class="triangle-float3"></path><path d="M700.829,354.43C770.679,357.346,847.862,345.702,884.133,285.936C921.371,224.577,898.765,148.698,863.688,86.078C827.588,21.633,774.624,-38.027,700.829,-41.298C622.173,-44.785,546.468,0.207,510.88,70.438C477.992,135.34,501.792,211.187,542.243,271.665C577.774,324.787,636.976,351.765,700.829,354.43" fill="rgba(242, 242, 242, 0.3137254901960784)" class="triangle-float3"></path><path d="M209.32088593233556 255.22268732532416L361.1916977413738 86.5530630929371 192.52207350898675-65.31774871610116 40.65126169994849 103.3518755162859z" fill="rgba(242, 242, 242, 0.3137254901960784)" class="triangle-float1"></path></g><defs><mask id="SvgjsMask1076"><rect width="1920" height="1080" fill="#ffffff"></rect></mask><style>
                @keyframes float1 {
                    0%{transform: translate(0, 0)}
                    50%{transform: translate(-10px, 0)}
                    100%{transform: translate(0, 0)}
                }

                .triangle-float1 {
                    animation: float1 5s infinite;
                }

                @keyframes float2 {
                    0%{transform: translate(0, 0)}
                    50%{transform: translate(-5px, -5px)}
                    100%{transform: translate(0, 0)}
                }

                .triangle-float2 {
                    animation: float2 4s infinite;
                }

                @keyframes float3 {
                    0%{transform: translate(0, 0)}
                    50%{transform: translate(0, -10px)}
                    100%{transform: translate(0, 0)}
                }

                .triangle-float3 {
                    animation: float3 6s infinite;
                }
            </style></defs></svg>