<svg xmlns="http://www.w3.org/2000/svg" version="1.1" xmlns:xlink="http://www.w3.org/1999/xlink" xmlns:svgjs="http://svgjs.dev/svgjs" width="1920" height="1080" preserveAspectRatio="none" viewBox="0 0 1920 1080"><g mask="url(&quot;#SvgjsMask1156&quot;)" fill="none"><rect width="1920" height="1080" x="0" y="0" fill="rgba(103, 100, 100, 1)"></rect><path d="M890.195,1115.279C935.991,1115.587,973.7,1083.888,997.075,1044.506C1021.035,1004.138,1033.185,954.448,1009.825,913.73C986.378,872.859,937.275,856.29,890.195,858.204C846.522,859.98,807.802,884.761,786.307,922.819C765.177,960.231,765.367,1005.274,785.777,1043.084C807.32,1082.994,844.843,1114.974,890.195,1115.279" fill="rgba(242, 242, 242, 0.3137254901960784)" class="triangle-float2"></path><path d="M1411.4423962475078 1068.8447792568668L1466.1752196262116 889.8217805916029 1170.2743099389638 897.2340448561789z" fill="rgba(242, 242, 242, 0.3137254901960784)" class="triangle-float3"></path><path d="M666.069867788922 284.65259890440507L483.2766190714265 394.48586348285824 593.1098836498797 577.2791122003537 775.9031323673752 467.44584762190055z" fill="rgba(242, 242, 242, 0.3137254901960784)" class="triangle-float3"></path><path d="M1318.128,616.171C1369.322,616.325,1418.05,594.393,1445.998,551.501C1476.862,504.134,1489.07,444.209,1462.795,394.151C1434.828,340.869,1378.24,305.11,1318.128,307.885C1261.792,310.486,1220.945,356.507,1194.884,406.52C1171.068,452.224,1165.462,506.308,1191.58,550.737C1217.373,594.614,1267.231,616.018,1318.128,616.171" fill="rgba(242, 242, 242, 0.3137254901960784)" class="triangle-float2"></path><path d="M1272.0859714728654 1012.374829763177L1459.465614183037 1048.7977426392952 1308.5088843489837 824.9951870530056z" fill="rgba(242, 242, 242, 0.3137254901960784)" class="triangle-float2"></path><path d="M1121.54,1101.115C1183.023,1098.984,1241.754,1073.624,1274.128,1021.311C1308.282,966.122,1313.376,897.34,1283.209,839.875C1250.809,778.158,1191.244,730.244,1121.54,730.651C1052.41,731.054,997.337,781.682,963.105,841.742C929.26,901.123,913.831,974.238,949.46,1032.566C983.957,1089.04,1055.403,1103.408,1121.54,1101.115" fill="rgba(242, 242, 242, 0.3137254901960784)" class="triangle-float1"></path></g><defs><mask id="SvgjsMask1156"><rect width="1920" height="1080" fill="#ffffff"></rect></mask><style>
                @keyframes float1 {
                    0%{transform: translate(0, 0)}
                    50%{transform: translate(-10px, 0)}
                    100%{transform: translate(0, 0)}
                }

                .triangle-float1 {
                    animation: float1 5s infinite;
                }

                @keyframes float2 {
                    0%{transform: translate(0, 0)}
                    50%{transform: translate(-5px, -5px)}
                    100%{transform: translate(0, 0)}
                }

                .triangle-float2 {
                    animation: float2 4s infinite;
                }

                @keyframes float3 {
                    0%{transform: translate(0, 0)}
                    50%{transform: translate(0, -10px)}
                    100%{transform: translate(0, 0)}
                }

                .triangle-float3 {
                    animation: float3 6s infinite;
                }
            </style></defs></svg>