<svg xmlns="http://www.w3.org/2000/svg" version="1.1" xmlns:xlink="http://www.w3.org/1999/xlink" xmlns:svgjs="http://svgjs.dev/svgjs" width="1920" height="1080" preserveAspectRatio="none" viewBox="0 0 1920 1080"><g mask="url(&quot;#SvgjsMask1112&quot;)" fill="none"><rect width="1920" height="1080" x="0" y="0" fill="rgba(103, 100, 100, 1)"></rect><path d="M1508.872,774.878C1565.238,776.285,1626.706,764.666,1655.337,716.092C1684.285,666.98,1669.333,604.504,1636.952,557.584C1608.768,516.745,1558.48,504.982,1508.872,503.868C1456.567,502.694,1399.084,507.827,1370.431,551.601C1339.606,598.693,1344.885,661.251,1374.544,709.085C1402.704,754.501,1455.451,773.545,1508.872,774.878" fill="rgba(242, 242, 242, 0.3137254901960784)" class="triangle-float2"></path><path d="M399.5888705898824 509.0705085086126L317.31821494748203 777.2513208232853 557.1750574134868 726.2681750956831z" fill="rgba(242, 242, 242, 0.3137254901960784)" class="triangle-float2"></path><path d="M1056.071580176094 500.2617831250552L873.2000800043561 195.25444659471327 717.7625634833231 464.48012261146937z" fill="rgba(242, 242, 242, 0.3137254901960784)" class="triangle-float1"></path><path d="M623.708,859.947C672.971,856.236,719.23,836.455,745.624,794.693C774.043,749.727,785,692.605,758.686,646.375C732.142,599.741,677.361,579.735,623.708,580.506C571.518,581.256,524.447,606.871,495.287,650.161C461.682,700.05,433.795,764.516,465.2,815.819C495.89,865.954,565.091,864.363,623.708,859.947" fill="rgba(242, 242, 242, 0.3137254901960784)" class="triangle-float1"></path><path d="M1742.936,1128.681C1815.634,1131.226,1894.048,1116.08,1932.483,1054.32C1972.651,989.775,1965.063,904.09,1921.461,841.813C1882.984,786.856,1810.012,784.776,1742.936,783.588C1672.659,782.343,1591.422,776.361,1553.111,835.29C1512.669,897.497,1534.759,979.511,1575.064,1041.806C1611.747,1098.504,1675.447,1126.318,1742.936,1128.681" fill="rgba(242, 242, 242, 0.3137254901960784)" class="triangle-float2"></path><path d="M285.1340435872612 142.54258380426097L219.12718353250324 18.40173520486607 65.91934066078989 179.4824495867005z" fill="rgba(242, 242, 242, 0.3137254901960784)" class="triangle-float1"></path></g><defs><mask id="SvgjsMask1112"><rect width="1920" height="1080" fill="#ffffff"></rect></mask><style>
                @keyframes float1 {
                    0%{transform: translate(0, 0)}
                    50%{transform: translate(-10px, 0)}
                    100%{transform: translate(0, 0)}
                }

                .triangle-float1 {
                    animation: float1 5s infinite;
                }

                @keyframes float2 {
                    0%{transform: translate(0, 0)}
                    50%{transform: translate(-5px, -5px)}
                    100%{transform: translate(0, 0)}
                }

                .triangle-float2 {
                    animation: float2 4s infinite;
                }

                @keyframes float3 {
                    0%{transform: translate(0, 0)}
                    50%{transform: translate(0, -10px)}
                    100%{transform: translate(0, 0)}
                }

                .triangle-float3 {
                    animation: float3 6s infinite;
                }
            </style></defs></svg>