<svg xmlns="http://www.w3.org/2000/svg" version="1.1" xmlns:xlink="http://www.w3.org/1999/xlink" xmlns:svgjs="http://svgjs.dev/svgjs" width="1920" height="1080" preserveAspectRatio="none" viewBox="0 0 1920 1080"><g mask="url(&quot;#SvgjsMask1152&quot;)" fill="none"><rect width="1920" height="1080" x="0" y="0" fill="rgba(103, 100, 100, 1)"></rect><path d="M742.928,795.907C831.948,795.546,931.741,789.14,977.913,713.029C1025.23,635.03,994.239,537.585,946.968,459.558C901.738,384.9,830.132,329.036,742.928,325.159C648.598,320.965,554.095,359.342,504.842,439.902C453.585,523.74,449.991,633.267,504.617,714.949C554.604,789.694,653.01,796.272,742.928,795.907" fill="rgba(242, 242, 242, 0.3137254901960784)" class="triangle-float1"></path><path d="M879.214,899.154C959.052,893.254,1032.385,855.048,1072.483,785.758C1112.653,716.344,1114.847,630.738,1074.739,561.288C1034.639,491.852,959.361,453.491,879.214,451.1C794.258,448.566,710.202,478.72,662.387,548.989C607.807,629.201,578.127,736.031,629.204,818.518C678.613,898.31,785.618,906.071,879.214,899.154" fill="rgba(242, 242, 242, 0.3137254901960784)" class="triangle-float3"></path><path d="M473.295,934.229C578.922,930.733,683.934,888.261,734.56,795.491C783.452,705.898,752.662,601.169,704.012,511.445C652.26,416,581.751,318.695,473.295,313.647C358.224,308.291,260.349,388.691,202.118,488.086C143.157,588.727,119.672,714.163,180.256,813.836C239.044,910.555,360.173,937.973,473.295,934.229" fill="rgba(242, 242, 242, 0.3137254901960784)" class="triangle-float3"></path><path d="M1149.272,753.17C1236.721,754.794,1333.684,751.663,1382.639,679.183C1436.262,599.791,1430.712,492.536,1380.36,411.03C1332.336,333.293,1240.583,298.017,1149.272,301.426C1064.002,304.609,989.749,353.824,946.256,427.237C901.812,502.255,884.346,596.775,930.446,670.787C974.612,741.693,1065.75,751.619,1149.272,753.17" fill="rgba(242, 242, 242, 0.3137254901960784)" class="triangle-float2"></path><path d="M904.44,104.953C946.898,104.388,975.153,65.803,995.436,28.498C1014.569,-6.693,1027.188,-48.659,1006.661,-83.055C986.502,-116.835,943.774,-124.511,904.44,-123.978C866.272,-123.461,826.903,-112.865,806.908,-80.349C786.07,-46.463,790.626,-4.227,809.154,30.975C829.228,69.113,861.346,105.526,904.44,104.953" fill="rgba(242, 242, 242, 0.3137254901960784)" class="triangle-float1"></path><path d="M1275.5286644816215 288.3569558258195L1279.2286360475043 512.5736205187828 1448.993269251894 414.55996383935025z" fill="rgba(242, 242, 242, 0.3137254901960784)" class="triangle-float3"></path></g><defs><mask id="SvgjsMask1152"><rect width="1920" height="1080" fill="#ffffff"></rect></mask><style>
                @keyframes float1 {
                    0%{transform: translate(0, 0)}
                    50%{transform: translate(-10px, 0)}
                    100%{transform: translate(0, 0)}
                }

                .triangle-float1 {
                    animation: float1 5s infinite;
                }

                @keyframes float2 {
                    0%{transform: translate(0, 0)}
                    50%{transform: translate(-5px, -5px)}
                    100%{transform: translate(0, 0)}
                }

                .triangle-float2 {
                    animation: float2 4s infinite;
                }

                @keyframes float3 {
                    0%{transform: translate(0, 0)}
                    50%{transform: translate(0, -10px)}
                    100%{transform: translate(0, 0)}
                }

                .triangle-float3 {
                    animation: float3 6s infinite;
                }
            </style></defs></svg>