<svg xmlns="http://www.w3.org/2000/svg" version="1.1" xmlns:xlink="http://www.w3.org/1999/xlink" xmlns:svgjs="http://svgjs.dev/svgjs" width="1920" height="1080" preserveAspectRatio="none" viewBox="0 0 1920 1080"><g mask="url(&quot;#SvgjsMask1125&quot;)" fill="none"><rect width="1920" height="1080" x="0" y="0" fill="rgba(103, 100, 100, 1)"></rect><path d="M1550.325940779897 669.8414900885557L1366.353089698902 650.5051642660416 1347.016763876388 834.4780153470365 1530.989614957383 853.8143411695506z" fill="rgba(242, 242, 242, 0.3137254901960784)" class="triangle-float1"></path><path d="M1305.793,303.28C1340.415,302.908,1373.51,287.772,1391.613,258.257C1410.568,227.353,1415.763,186.989,1395.601,156.858C1376.977,129.025,1339.28,129.609,1305.793,130.004C1273.306,130.387,1237.929,132.123,1219.578,158.933C1199.147,188.781,1198.169,229.083,1216.717,260.137C1234.849,290.494,1270.435,303.66,1305.793,303.28" fill="rgba(242, 242, 242, 0.3137254901960784)" class="triangle-float1"></path><path d="M712.704898713069 99.08151210541122L536.3310237375053-77.29236287015239 359.95714876194177 99.08151210541125 536.3310237375055 275.45538708097484z" fill="rgba(242, 242, 242, 0.3137254901960784)" class="triangle-float3"></path><path d="M1725.649,675.045C1798.849,677.356,1869.456,638.113,1903.628,573.338C1935.912,512.142,1915.249,441.01,1880.759,381.029C1846.135,320.815,1794.956,268.41,1725.649,263.816C1648.373,258.694,1566.775,289.478,1530.307,357.801C1495.317,423.354,1527.165,499.409,1566.126,562.683C1602.677,622.043,1655.973,672.845,1725.649,675.045" fill="rgba(242, 242, 242, 0.3137254901960784)" class="triangle-float1"></path><path d="M1721.6640011345276 513.888600943539L1704.567740665833 653.126468823473 1921.9726727200814 609.1519255865476z" fill="rgba(242, 242, 242, 0.3137254901960784)" class="triangle-float1"></path><path d="M445.235,661.444C475.204,663.551,507.743,654.13,522.334,627.868C536.642,602.116,523.537,572.162,509.112,546.475C494.263,520.032,475.551,491.395,445.235,490.571C413.983,489.721,388.411,514.567,375.045,542.83C363.435,567.379,371.045,594.832,384.875,618.203C398.384,641.032,418.773,659.584,445.235,661.444" fill="rgba(242, 242, 242, 0.3137254901960784)" class="triangle-float3"></path></g><defs><mask id="SvgjsMask1125"><rect width="1920" height="1080" fill="#ffffff"></rect></mask><style>
                @keyframes float1 {
                    0%{transform: translate(0, 0)}
                    50%{transform: translate(-10px, 0)}
                    100%{transform: translate(0, 0)}
                }

                .triangle-float1 {
                    animation: float1 5s infinite;
                }

                @keyframes float2 {
                    0%{transform: translate(0, 0)}
                    50%{transform: translate(-5px, -5px)}
                    100%{transform: translate(0, 0)}
                }

                .triangle-float2 {
                    animation: float2 4s infinite;
                }

                @keyframes float3 {
                    0%{transform: translate(0, 0)}
                    50%{transform: translate(0, -10px)}
                    100%{transform: translate(0, 0)}
                }

                .triangle-float3 {
                    animation: float3 6s infinite;
                }
            </style></defs></svg>