<svg xmlns="http://www.w3.org/2000/svg" version="1.1" xmlns:xlink="http://www.w3.org/1999/xlink" xmlns:svgjs="http://svgjs.dev/svgjs" width="1920" height="1080" preserveAspectRatio="none" viewBox="0 0 1920 1080"><g mask="url(&quot;#SvgjsMask1086&quot;)" fill="none"><rect width="1920" height="1080" x="0" y="0" fill="rgba(103, 100, 100, 1)"></rect><path d="M1323.39327625206-119.7906796781151L1139.7749709241607-5.053228229181556 1254.512422373094 178.5650770987179 1438.1307277009937 63.827625649784366z" fill="rgba(242, 242, 242, 0.3137254901960784)" class="triangle-float1"></path><path d="M1018.56,1270.114C1095.483,1269.809,1178.191,1251.844,1216.361,1185.058C1254.323,1118.635,1226.248,1039.288,1188.52,972.731C1150.102,904.955,1096.4,839.348,1018.56,836.109C936.158,832.681,863.157,885.904,822.202,957.49C781.541,1028.562,774.468,1117.301,818.019,1186.639C859.296,1252.356,940.956,1270.422,1018.56,1270.114" fill="rgba(242, 242, 242, 0.3137254901960784)" class="triangle-float2"></path><path d="M1786.923,364.546C1832.749,363.486,1876.659,343.479,1900.08,304.076C1924.006,263.825,1922.973,214.241,1900.772,173.014C1877.292,129.413,1836.408,92.062,1786.923,93.947C1739.62,95.749,1710.568,140.002,1687.167,181.15C1664.136,221.646,1642.057,268.606,1664.317,309.531C1687.258,351.706,1738.925,365.657,1786.923,364.546" fill="rgba(242, 242, 242, 0.3137254901960784)" class="triangle-float2"></path><path d="M1617.1429578895759 825.2309270647708L1616.9605569965265 1016.6231185630028 1763.2905150299607 935.5110983263664z" fill="rgba(242, 242, 242, 0.3137254901960784)" class="triangle-float1"></path><path d="M376.49490293305035 226.1532148623694L190.54203257891675 297.5338340029247 390.5893964668165 540.7728299638475z" fill="rgba(242, 242, 242, 0.3137254901960784)" class="triangle-float3"></path><path d="M419.225,526.838C453.154,525.527,483.886,508.333,501.533,479.325C519.953,449.046,524.76,411.763,508.34,380.354C490.698,346.609,457.263,323.64,419.225,321.887C377.927,319.983,335.199,335.555,314.646,371.426C294.186,407.134,302.136,451.998,325.112,486.141C345.564,516.534,382.619,528.252,419.225,526.838" fill="rgba(242, 242, 242, 0.3137254901960784)" class="triangle-float1"></path></g><defs><mask id="SvgjsMask1086"><rect width="1920" height="1080" fill="#ffffff"></rect></mask><style>
                @keyframes float1 {
                    0%{transform: translate(0, 0)}
                    50%{transform: translate(-10px, 0)}
                    100%{transform: translate(0, 0)}
                }

                .triangle-float1 {
                    animation: float1 5s infinite;
                }

                @keyframes float2 {
                    0%{transform: translate(0, 0)}
                    50%{transform: translate(-5px, -5px)}
                    100%{transform: translate(0, 0)}
                }

                .triangle-float2 {
                    animation: float2 4s infinite;
                }

                @keyframes float3 {
                    0%{transform: translate(0, 0)}
                    50%{transform: translate(0, -10px)}
                    100%{transform: translate(0, 0)}
                }

                .triangle-float3 {
                    animation: float3 6s infinite;
                }
            </style></defs></svg>