<svg xmlns="http://www.w3.org/2000/svg" version="1.1" xmlns:xlink="http://www.w3.org/1999/xlink" xmlns:svgjs="http://svgjs.dev/svgjs" width="1920" height="1080" preserveAspectRatio="none" viewBox="0 0 1920 1080"><g mask="url(&quot;#SvgjsMask1130&quot;)" fill="none"><rect width="1920" height="1080" x="0" y="0" fill="rgba(103, 100, 100, 1)"></rect><path d="M636.5814105187773 928.1389169629902L838.3142662235734 740.0199856486354 650.1953349092188 538.2871299438392 448.4624792044225 726.4060612581939z" fill="rgba(242, 242, 242, 0.3137254901960784)" class="triangle-float3"></path><path d="M1697.216,1032.023C1790.069,1034.63,1892.677,1017.453,1939.27,937.094C1985.962,856.563,1952.401,757.357,1901.755,679.252C1856.101,608.846,1781.049,567.452,1697.216,563.803C1605.626,559.816,1507.03,581.71,1459.32,659.994C1410.092,740.768,1426.654,844.437,1477.614,924.13C1524.706,997.774,1609.836,1029.569,1697.216,1032.023" fill="rgba(242, 242, 242, 0.3137254901960784)" class="triangle-float3"></path><path d="M549.365,904.637C583.514,905.203,619.234,896.011,637.237,866.987C656.084,836.604,652.244,798.138,634.777,766.941C616.864,734.947,586.024,709.281,549.365,710.039C513.721,710.776,486.761,738.961,469.862,770.353C453.966,799.881,449.315,835.297,466.4,864.154C483.202,892.534,516.389,904.09,549.365,904.637" fill="rgba(242, 242, 242, 0.3137254901960784)" class="triangle-float1"></path><path d="M1810.698,952.162C1882.158,946.919,1928.955,882.566,1959.582,817.789C1985.356,763.276,1984.12,701.333,1953.985,649.104C1923.835,596.849,1870.852,564.343,1810.698,559.751C1740.288,554.376,1663.413,565.473,1623.741,623.891C1579.787,688.614,1579.748,774.83,1618.466,842.815C1657.568,911.472,1731.899,957.943,1810.698,952.162" fill="rgba(242, 242, 242, 0.3137254901960784)" class="triangle-float1"></path><path d="M1395.363,1224.463C1458.906,1226.599,1517.196,1188.897,1548.281,1133.435C1578.696,1079.168,1574.127,1013.762,1543.945,959.365C1512.752,903.146,1459.564,854.393,1395.363,857.834C1334.933,861.073,1299.6,920.069,1272.027,973.94C1247.558,1021.747,1235.552,1075.538,1259.273,1123.72C1285.992,1177.992,1334.904,1222.431,1395.363,1224.463" fill="rgba(242, 242, 242, 0.3137254901960784)" class="triangle-float1"></path><path d="M479.967,1267.293C543.351,1264.989,605.822,1243.347,639.635,1189.685C675.721,1132.416,679.938,1060.162,648.133,1000.409C614.337,936.914,551.842,892.49,479.967,889.707C403.105,886.731,326.21,919.908,287.625,986.451C248.931,1053.182,255.257,1138.428,298.844,1202.071C337.707,1258.816,411.235,1269.791,479.967,1267.293" fill="rgba(242, 242, 242, 0.3137254901960784)" class="triangle-float3"></path></g><defs><mask id="SvgjsMask1130"><rect width="1920" height="1080" fill="#ffffff"></rect></mask><style>
                @keyframes float1 {
                    0%{transform: translate(0, 0)}
                    50%{transform: translate(-10px, 0)}
                    100%{transform: translate(0, 0)}
                }

                .triangle-float1 {
                    animation: float1 5s infinite;
                }

                @keyframes float2 {
                    0%{transform: translate(0, 0)}
                    50%{transform: translate(-5px, -5px)}
                    100%{transform: translate(0, 0)}
                }

                .triangle-float2 {
                    animation: float2 4s infinite;
                }

                @keyframes float3 {
                    0%{transform: translate(0, 0)}
                    50%{transform: translate(0, -10px)}
                    100%{transform: translate(0, 0)}
                }

                .triangle-float3 {
                    animation: float3 6s infinite;
                }
            </style></defs></svg>