<svg xmlns="http://www.w3.org/2000/svg" version="1.1" xmlns:xlink="http://www.w3.org/1999/xlink" xmlns:svgjs="http://svgjs.dev/svgjs" width="1920" height="1080" preserveAspectRatio="none" viewBox="0 0 1920 1080"><g mask="url(&quot;#SvgjsMask1150&quot;)" fill="none"><rect width="1920" height="1080" x="0" y="0" fill="rgba(103, 100, 100, 1)"></rect><path d="M1036.632,1173.784C1124.863,1170.077,1197.384,1113.689,1243.376,1038.302C1291.768,958.981,1321.626,861.67,1276.653,780.362C1230.567,697.042,1131.827,662.522,1036.632,664.523C945.17,666.446,861.083,711.98,813.478,790.1C763.762,871.684,749.406,974.45,797.439,1057.036C845.247,1139.235,941.625,1177.775,1036.632,1173.784" fill="rgba(242, 242, 242, 0.3137254901960784)" class="triangle-float3"></path><path d="M1409.1502371991394 521.6906335012162L1538.2530285124556 775.0691280227695 1791.6315230340088 645.9663367094533 1662.5287317206928 392.58784218790004z" fill="rgba(242, 242, 242, 0.3137254901960784)" class="triangle-float2"></path><path d="M238.9534275460668 1199.8302350831023L417.79333558879284 1014.6360889893415 232.59918949503214 835.7961809466156 53.759281452306084 1020.9903270403762z" fill="rgba(242, 242, 242, 0.3137254901960784)" class="triangle-float1"></path><path d="M532.1138522544069 610.2817527795282L646.0115631314902 434.8946583412244 470.62446869318643 320.99694746414104 356.72675781610303 496.3840419024449z" fill="rgba(242, 242, 242, 0.3137254901960784)" class="triangle-float2"></path><path d="M658.62,691.717C734.94,689.706,800.858,642.775,838.502,576.355C875.588,510.92,878.466,432.362,843.289,365.881C805.603,294.659,739.082,232.07,658.62,236.399C582.716,240.483,542.74,317.828,505.434,384.058C469.149,448.475,428.581,520.105,461.534,586.288C497.126,657.771,578.794,693.82,658.62,691.717" fill="rgba(242, 242, 242, 0.3137254901960784)" class="triangle-float1"></path><path d="M752.048,826.917C783.881,827.586,813.511,812.84,831.521,786.583C852.549,755.925,866.428,717.5,849.956,684.172C831.911,647.661,792.775,625.861,752.048,625.783C711.188,625.704,670.834,646.799,653.486,683.794C637.927,716.974,657.371,753.179,678.156,783.361C695.537,808.599,721.411,826.273,752.048,826.917" fill="rgba(242, 242, 242, 0.3137254901960784)" class="triangle-float2"></path></g><defs><mask id="SvgjsMask1150"><rect width="1920" height="1080" fill="#ffffff"></rect></mask><style>
                @keyframes float1 {
                    0%{transform: translate(0, 0)}
                    50%{transform: translate(-10px, 0)}
                    100%{transform: translate(0, 0)}
                }

                .triangle-float1 {
                    animation: float1 5s infinite;
                }

                @keyframes float2 {
                    0%{transform: translate(0, 0)}
                    50%{transform: translate(-5px, -5px)}
                    100%{transform: translate(0, 0)}
                }

                .triangle-float2 {
                    animation: float2 4s infinite;
                }

                @keyframes float3 {
                    0%{transform: translate(0, 0)}
                    50%{transform: translate(0, -10px)}
                    100%{transform: translate(0, 0)}
                }

                .triangle-float3 {
                    animation: float3 6s infinite;
                }
            </style></defs></svg>