<svg xmlns="http://www.w3.org/2000/svg" version="1.1" xmlns:xlink="http://www.w3.org/1999/xlink" xmlns:svgjs="http://svgjs.dev/svgjs" width="1920" height="1080" preserveAspectRatio="none" viewBox="0 0 1920 1080"><g mask="url(&quot;#SvgjsMask1095&quot;)" fill="none"><rect width="1920" height="1080" x="0" y="0" fill="rgba(103, 100, 100, 1)"></rect><path d="M1984 1080L0 1080 L0 282.37Q300.29 486.66, 96 786.96Q-21.19 573.77, 192 456.59Q196.25 300.84, 352 305.09Q392.19 185.28, 512 225.48Q566.82 184.3, 608 239.11Q702.86 237.97, 704 332.82Q796.68 329.5, 800 422.19Q839.43 365.62, 896 405.05Q873.92 286.98, 992 264.9Q1314.38 427.28, 1152 749.67Q1111.21 548.88, 1312 508.09Q1252.34 288.43, 1472 228.77Q1781.85 442.62, 1568 752.47Q1551.82 576.29, 1728 560.1Q1631.15 367.25, 1824 270.4Q2116.05 402.45, 1984 694.5z" fill="rgba(242, 242, 242, 1)"></path><path d="M1952 1080L0 1080 L0 964.98Q91.65 896.63, 160 988.28Q214.97 883.25, 320 938.21Q411.47 869.68, 480 961.16Q484.84 806, 640 810.84Q707.34 718.18, 800 785.53Q806.05 695.58, 896 701.63Q986.97 696.6, 992 787.57Q1173.38 808.95, 1152 990.33Q1294.79 1037.12, 1248 1179.91Q1104.63 940.54, 1344 797.17Q1323.37 680.54, 1440 659.91Q1588.91 648.82, 1600 797.73Q1845.99 947.73, 1696 1193.72Q1522.95 860.67, 1856 687.63Q2165.47 901.1, 1952 1210.57z" fill="rgba(255, 255, 255, 1)"></path></g><defs><mask id="SvgjsMask1095"><rect width="1920" height="1080" fill="#ffffff"></rect></mask></defs></svg>