<svg xmlns="http://www.w3.org/2000/svg" version="1.1" xmlns:xlink="http://www.w3.org/1999/xlink" xmlns:svgjs="http://svgjs.dev/svgjs" width="1440" height="560" preserveAspectRatio="none" viewBox="0 0 1440 560"><g mask="url(&quot;#SvgjsMask1009&quot;)" fill="none"><rect width="1440" height="560" x="0" y="0" fill="rgba(79, 79, 79, 1)"></rect><path d="M 0,130 C 57.6,139.8 172.8,192.8 288,179 C 403.2,165.2 460.8,68.6 576,61 C 691.2,53.4 748.8,138.2 864,141 C 979.2,143.8 1036.8,63 1152,75 C 1267.2,87 1382.4,175.8 1440,201L1440 560L0 560z" fill="rgba(181, 181, 181, 1)"></path><path d="M 0,347 C 96,366.8 288,432.4 480,446 C 672,459.6 768,398.8 960,415 C 1152,431.2 1344,504.6 1440,527L1440 560L0 560z" fill="rgba(253, 253, 253, 1)"></path></g><defs><mask id="SvgjsMask1009"><rect width="1440" height="560" fill="#ffffff"></rect></mask></defs></svg>