<svg xmlns="http://www.w3.org/2000/svg" version="1.1" xmlns:xlink="http://www.w3.org/1999/xlink" xmlns:svgjs="http://svgjs.dev/svgjs" width="1920" height="1080" preserveAspectRatio="none" viewBox="0 0 1920 1080"><g mask="url(&quot;#SvgjsMask1170&quot;)" fill="none"><rect width="1920" height="1080" x="0" y="0" fill="rgba(103, 100, 100, 1)"></rect><path d="M -582.7017825936812,678 C -390.7,593.4 -6.7,220.8 377.2982174063188,255 C 761.3,289.2 953.3,807.8 1337.2982174063188,849 C 1721.3,890.2 2180.76,467.4 2297.298217406319,461 C 2413.84,454.6 1995.46,745.8 1920,817" stroke="rgba(255, 255, 255, 1)" stroke-width="2"></path><path d="M -1003.2944664820492,543 C -811.29,481.8 -427.29,186.8 -43.294466482049216,237 C 340.71,287.2 532.71,793.6 916.7055335179508,794 C 1300.71,794.4 1676.05,253.4 1876.7055335179507,239 C 2077.36,224.6 1911.34,625.4 1920,722" stroke="rgba(255, 255, 255, 1)" stroke-width="2"></path><path d="M -1833.5136303376778,805 C -1641.51,691.8 -1257.51,259.2 -873.5136303376778,239 C -489.51,218.8 -297.51,649.2 86.4863696623222,704 C 470.49,758.8 679.78,491.8 1046.4863696623222,513 C 1413.19,534.2 1745.3,750.6 1920,810" stroke="rgba(255, 255, 255, 1)" stroke-width="2"></path><path d="M -635.2711961656412,753 C -443.27,653.4 -59.27,278.8 324.72880383435887,255 C 708.73,231.2 900.73,627.4 1284.7288038343588,634 C 1668.73,640.6 2117.67,265.6 2244.728803834359,288 C 2371.78,310.4 1984.95,654.4 1920,746" stroke="rgba(255, 255, 255, 1)" stroke-width="2"></path></g><defs><mask id="SvgjsMask1170"><rect width="1920" height="1080" fill="#ffffff"></rect></mask></defs></svg>